PathFileType	4	(X/Y/Z)	./resultDataOpenSim/trcMotMarkerGrf/sub06/qtm-02-05.trc
DataRate	CameraRate	NumFrames	NumMarkers	Units	OrigDataRate	OrigDataStartFrame	OrigNumFrames
250.000000	250.000000	7	24	m	250.000000	61	484
Frame#	Time	L.Toe.Tip			R.Toe.Tip			L.Ankle.Lat			R.Ankle.Lat			L.Ankle.Med			R.Ankle.Med			L.Heel			R.Heel			L.Knee.Lat			R.Knee.Lat			L.Knee.Med			R.Knee.Med			L.Thigh.Upper			R.Thigh.Upper			L.ASIS			R.ASIS			V.Sacral			L.Acromium			R.Acromium			C7			L.Elbow			R.Elbow			L.Wrist.Lat			R.Wrist.Lat
		X1	Y1	Z1	X2	Y2	Z2	X3	Y3	Z3	X4	Y4	Z4	X5	Y5	Z5	X6	Y6	Z6	X7	Y7	Z7	X8	Y8	Z8	X9	Y9	Z9	X10	Y10	Z10	X11	Y11	Z11	X12	Y12	Z12	X13	Y13	Z13	X14	Y14	Z14	X15	Y15	Z15	X16	Y16	Z16	X17	Y17	Z17	X18	Y18	Z18	X19	Y19	Z19	X20	Y20	Z20	X21	Y21	Z21	X22	Y22	Z22	X23	Y23	Z23	X24	Y24	Z24

61	0.24	-1.2944937	0.085040935	-0.097319743	-0.77043525	0.035636155	0.069639243	-1.2923129	0.21573139	-0.12946748	-0.90435562	0.06111717	0.095080497	-1.27383	0.22137597	-0.048496954	-0.88895558	0.081082838	0.008114438	-1.3399179	0.2729705	-0.083659032	-0.96158771	0.037956547	0.033843342	-0.95784331	0.38889529	-0.15713456	-0.85030443	0.44437884	0.12489071	-0.95652454	0.37650439	-0.035185436	-0.88589908	0.4330245	0.0011441522	-1.0040892	0.78228933	-0.15649788	-0.97232695	0.80051315	0.18507911	-0.92404436	0.83336302	-0.11963986	-0.89070261	0.84873193	0.12198849	-1.0937144	0.9197577	0.019957233	-0.95951637	1.3250458	-0.16353871	-0.96531995	1.3052222	0.19871652	-1.0352413	1.3585849	0.017173459	-0.98588276	1.0017798	-0.22452298	-1.0684563	1.0038822	0.24428029	-0.79708178	0.84164707	-0.21465752	-0.95617618	0.79093821	0.27821725
62	0.244	-1.2777842	0.085333866	-0.097195875	-0.77059769	0.03566405	0.069812999	-1.2782399	0.21588879	-0.12884535	-0.90465335	0.061110267	0.095260057	-1.2604246	0.22189727	-0.047839582	-0.88909608	0.081233851	0.0083568339	-1.3265799	0.27243559	-0.083008788	-0.96165165	0.03802679	0.033902706	-0.94529243	0.39132476	-0.1570307	-0.84905223	0.44447662	0.12538108	-0.94355358	0.37895246	-0.034862578	-0.88436171	0.43331092	0.0014564488	-0.99759947	0.78427127	-0.15552048	-0.96788335	0.80139434	0.18537238	-0.9179505	0.83531316	-0.1193459	-0.88514926	0.85006008	0.12285095	-1.0875434	0.92144388	0.020500264	-0.95412225	1.3269194	-0.16336196	-0.95915386	1.3072921	0.19883513	-1.0293356	1.3602628	0.017351662	-0.98134492	1.0039442	-0.22408699	-1.0607926	1.0056224	0.24535184	-0.79361513	0.84222186	-0.21468054	-0.94708169	0.79354523	0.27893469
63	0.248	-1.2609176	0.085445305	-0.097186645	-0.77073406	0.035688751	0.069967908	-1.2640704	0.21583083	-0.12829523	-0.90491357	0.061108149	0.095416155	-1.2467059	0.22214914	-0.047249094	-0.88919651	0.081389473	0.0085950942	-1.3131633	0.27163101	-0.082469235	-0.96170368	0.038106361	0.033983212	-0.93279753	0.39387647	-0.15689231	-0.8478584	0.44456226	0.12576381	-0.93056018	0.38147765	-0.034596612	-0.88282179	0.43360246	0.0016912588	-0.99109688	0.78629519	-0.15472916	-0.9621153	0.8024522	0.1861405	-0.91190246	0.83723496	-0.11907243	-0.87950688	0.8514167	0.12374338	-1.0814283	0.92289148	0.021801477	-0.94870025	1.32879	-0.16318293	-0.95297999	1.3093716	0.19893321	-1.0234238	1.3619372	0.017536719	-0.97688999	1.0061375	-0.2236826	-1.0531861	1.007399	0.24641355	-0.79020634	0.84283587	-0.21474638	-0.9379627	0.79619539	0.27962761
64	0.252	-1.243912	0.085395805	-0.097304046	-0.77084294	0.035712437	0.070097857	-1.2496867	0.21557705	-0.12783744	-0.90511975	0.061112824	0.095543416	-1.2325758	0.22215172	-0.046754162	-0.8892512	0.081549166	0.0088168211	-1.2996514	0.27053638	-0.081932699	-0.961748	0.038190476	0.034083397	-0.92031719	0.39654049	-0.1567199	-0.84674288	0.44463309	0.12605584	-0.91754949	0.38408738	-0.034336896	-0.88135815	0.43390269	0.0018684177	-0.98460366	0.78833594	-0.15419372	-0.95542244	0.80365818	0.18727618	-0.90591328	0.83912547	-0.11883254	-0.87362585	0.85280761	0.12468525	-1.075464	0.92418043	0.023435179	-0.94325161	1.330655	-0.16300023	-0.94678857	1.3114574	0.1990021	-1.0175057	1.3636089	0.017732354	-0.97252571	1.0083323	-0.22327369	-1.0457118	1.0091848	0.24738393	-0.78685104	0.84348356	-0.21485364	-0.92882152	0.7988778	0.28029218
65	0.256	-1.2268503	0.085186932	-0.0974378	-0.77092679	0.03573636	0.070198989	-1.2351177	0.21513189	-0.12742012	-0.90526436	0.061127301	0.095643675	-1.2181007	0.22191725	-0.046323969	-0.88927511	0.081716237	0.0090144019	-1.2860877	0.26918343	-0.081277599	-0.96179165	0.038265809	0.034194238	-0.90783744	0.39930923	-0.15651523	-0.84564395	0.44469153	0.12631159	-0.90450508	0.38678902	-0.034060855	-0.88005321	0.43420006	0.0020042154	-0.97810177	0.79036483	-0.15384254	-0.94849641	0.80493687	0.18855673	-0.899933	0.84099015	-0.11860094	-0.86740267	0.8542281	0.12568974	-1.0695988	0.92549898	0.024730186	-0.93778515	1.3325084	-0.16281709	-0.9405702	1.3135317	0.19903584	-1.0115842	1.3652658	0.017943073	-0.9682409	1.0105097	-0.22286087	-1.0383696	1.0109547	0.24826353	-0.78357717	0.84415923	-0.21501296	-0.919664	0.80158135	0.28092719
66	0.26	-1.2098138	0.084796731	-0.09743898	-0.77099138	0.035759971	0.070270984	-1.2204518	0.21449169	-0.12698022	-0.90534345	0.061150663	0.095719387	-1.2033855	0.22144088	-0.045918892	-0.88928616	0.081893139	0.0091864492	-1.2725249	0.26759544	-0.080448214	-0.96184237	0.038315487	0.034307874	-0.8954215	0.40217212	-0.15628516	-0.84455753	0.44472694	0.12655299	-0.89144784	0.38958709	-0.033771124	-0.87883667	0.43447881	0.0021129737	-0.97156465	0.79237019	-0.15358407	-0.94177872	0.80622384	0.18980399	-0.8938879	0.84284235	-0.11833519	-0.86094068	0.85566291	0.1267344	-1.0636939	0.92696291	0.02537962	-0.93230236	1.3343367	-0.16263998	-0.93432509	1.3155767	0.1990376	-1.0056607	1.3668929	0.01817046	-0.96398151	1.0126498	-0.22241386	-1.0311104	1.0126968	0.24910212	-0.78043568	0.84485484	-0.21524235	-0.91049564	0.80429883	0.28153508
67	0.264	-1.1927233	0.084223076	-0.097336933	-0.77104501	0.035781758	0.070315669	-1.2057257	0.21365603	-0.12650813	-0.90536382	0.061171171	0.095767364	-1.1884771	0.22072371	-0.045530646	-0.88929392	0.082077379	0.0093337615	-1.2589278	0.26573791	-0.079510133	-0.96190434	0.038338164	0.034421281	-0.88313651	0.40511353	-0.15603687	-0.84353867	0.44472938	0.12675444	-0.87845399	0.39247111	-0.033486294	-0.87755334	0.4347469	0.0022206712	-0.96497536	0.79434866	-0.15336468	-0.93542294	0.80747225	0.19090591	-0.88775994	0.84469407	-0.11801963	-0.85465768	0.8570895	0.12773709	-1.0576996	0.92853458	0.025572048	-0.9267951	1.336129	-0.16247489	-0.92806081	1.317585	0.19901435	-0.99973237	1.3684797	0.018412169	-0.95968571	1.0147408	-0.2218828	-1.023891	1.0144121	0.2499395	-0.77742128	0.84556127	-0.21553965	-0.90131249	0.8070253	0.28211405
